<?xml version="1.0" encoding="utf-8"?>
<!-- Generator: Adobe Illustrator 17.0.2, SVG Export Plug-In . SVG Version: 6.00 Build 0)  -->
<!DOCTYPE svg PUBLIC "-//W3C//DTD SVG 1.1//EN" "http://www.w3.org/Graphics/SVG/1.1/DTD/svg11.dtd">
<svg version="1.1" id="Layer_1" xmlns="http://www.w3.org/2000/svg" xmlns:xlink="http://www.w3.org/1999/xlink" x="0px" y="0px"
	 width="485.003px" height="53.44px" viewBox="0 0 485.003 53.44" enable-background="new 0 0 485.003 53.44" xml:space="preserve">
<g>
	<path fill="#FFFFFF" d="M35.81,46.791c-2.501-1.281-5.002-3.6-7.381-6.284l-6.894,6.466h-0.122
		c-2.074-1.952-5.673-3.721-9.517-3.721c-3.722,0-7.138,0.732-11.591,4.819L0,47.767c1.891-3.355,4.819-6.771,8.479-8.846
		l6.955-11.53c-4.026-1.281-8.479-5.613-8.479-12.018C6.955,7.32,14.763,0,23.609,0c5.124,0,8.724,1.464,11.713,3.538l4.026-3.233
		l0.305,0.366c-2.196,1.586-2.135,3.294-2.135,6.405v29.771c0,2.44,3.904,4.941,4.332,4.941c0.244,0,0.732-0.305,1.708-0.915
		l0.244,0.366L35.81,46.791z M29.526,30.563H14.153l-4.819,7.931c2.074-0.976,4.515-1.525,7.138-1.525
		c4.575,0,8.114,1.708,10.737,4.026l2.318-2.135V30.563z M21.718,5.978c-6.65,0-11.408,4.454-11.408,10.92
		c0,5.063,1.769,8.175,5.369,10.066L27.635,7.137C25.927,6.405,24.036,5.978,21.718,5.978z M29.526,7.991
		c-0.488-0.244-0.915-0.488-1.403-0.671L17.874,24.341h11.652V7.991z"/>
	<path fill="#FFFFFF" d="M79.729,20.863v19.034c-5.125,2.013-8.785,3.538-13.665,6.71l-6.771-4.332l-6.223,4.332l-5.734-4.576
		c-1.586-1.281-1.83-1.403-2.318-1.403c-0.549,0-1.22,0.488-1.769,0.915l-0.244-0.366l3.233-2.379V24.951
		c0-2.44-1.159-3.233-2.44-4.393c-1.037-0.915-2.257-2.074-2.257-4.331c0-4.148,3.721-6.588,7.503-6.527
		c0.549,0,1.22,0.122,1.647,0.183v0.305c-1.159,0.122-3.599,0.488-3.599,2.928c0,1.403,1.586,2.318,3.111,3.355
		c1.647,1.159,3.355,2.623,3.355,5.795v15.739l5.368,3.965l0.366-0.244V23.669c0-2.013-1.586-2.745-2.135-2.989l5.856-4.758
		l5.429,4.758c-0.549,0.244-1.83,0.976-1.83,2.928v14.763l5.917,4.087V24.341c0-2.074-2.013-3.478-2.806-3.722l6.101-4.758
		l4.148,4.148l1.342-0.976l0.244,0.366L79.729,20.863z"/>
	<path fill="#FFFFFF" d="M93.331,46.485h-0.183l-8.968-6.345V22.754c5.856-2.257,8.541-3.904,12.75-6.833h0.183l6.588,8.358v0.122
		L91.5,32.698v3.417c2.074,2.928,5.551,4.453,6.466,4.453c1.098,0,3.294-1.83,4.514-2.867l1.342-1.159l0.305,0.366L93.331,46.485z
		 M91.5,20.375v11.774l5.979-4.148L91.5,20.375z"/>
	<path fill="#FFFFFF" d="M114.619,46.546h-0.183c-0.854-0.854-2.684-2.196-4.758-2.196c-2.196,0-2.806,1.403-2.806,2.257
		c0,1.159,0.488,1.525,1.037,2.013l-0.183,0.305c-2.196-0.854-3.478-2.806-3.478-5.063c0-2.501,0.915-5.186,5.247-9.029
		l-4.392-3.478v-8.602c5.124-2.196,7.564-3.599,11.469-6.833h0.183c0.976,1.037,2.318,2.379,4.392,2.379
		c2.013,0,3.294-1.159,3.782-2.501h0.183c0.061,0.61,0.122,1.281,0.122,1.647c0,2.623-1.22,6.161-4.636,9.028l5.124,3.904v9.273
		C119.865,41.91,118.401,42.886,114.619,46.546z M118.462,33.552l-3.111-2.623c-4.453,2.501-8.175,6.588-8.846,8.296l0.122,0.122
		c0.549-0.305,1.891-1.098,4.636-1.098c3.294,0,6.04,2.196,7.199,3.661V33.552z M122.732,22.876
		c-1.403,0.61-2.074,1.037-3.782,1.037c-3.233,0-5.673-2.257-6.588-3.538v7.87l2.745,2.318c2.624-1.586,6.71-5.368,7.687-7.564
		L122.732,22.876z"/>
	<path fill="#FFFFFF" d="M149.877,22.022v16.776c-5.491,2.684-7.748,4.392-12.75,7.625h-0.183l-8.175-5.795V22.632
		c5.491-2.135,7.809-3.538,12.75-6.71h0.183l7.931,5.673l1.891-1.22l0.244,0.366L149.877,22.022z M142.556,24.829l-6.466-4.636
		v17.264l6.466,4.636V24.829z"/>
	<path fill="#FFFFFF" d="M186.111,46.546h-0.183l-6.04-5.308c0.549-0.244,1.769-0.854,1.769-2.44V24.523l-4.27-3.782l-1.464,1.037
		v17.569c0,1.586,1.403,2.196,1.952,2.44l-5.429,4.758l-5.613-4.758c0.549-0.244,1.77-0.854,1.77-2.44V24.523l-4.271-3.782
		l-1.464,1.037v17.569c0,1.586,1.403,2.196,1.952,2.44l-5.43,4.758l-5.734-4.758c0.549-0.244,1.891-0.854,1.891-2.44V23.243
		c0-1.22-2.013-2.867-2.562-2.867c-0.427,0-0.915,0.183-1.891,0.854l-0.244-0.366l7.259-4.941h0.183
		c2.074,1.525,3.294,2.928,4.576,5.308l6.893-5.308l6.101,5.308l6.955-5.308l6.04,5.43l1.708-1.281l0.244,0.366l-1.891,1.464v17.386
		c0,1.647,1.83,2.928,2.318,2.928c0.366,0,1.098-0.244,2.013-0.976l0.244,0.366L186.111,46.546z"/>
	<path fill="#FFFFFF" d="M203.616,46.485h-0.183l-8.968-6.345V22.754c5.856-2.257,8.541-3.904,12.75-6.833h0.183l6.588,8.358v0.122
		l-12.201,8.296v3.417c2.074,2.928,5.551,4.453,6.466,4.453c1.098,0,3.294-1.83,4.514-2.867l1.342-1.159l0.305,0.366L203.616,46.485
		z M201.786,20.375v11.774l5.979-4.148L201.786,20.375z"/>
	<path fill="#FFFFFF" d="M237.654,44.533c-0.732-0.732-1.647-1.403-2.624-1.952V53.44h-11.896V41.056
		c-2.928,0.61-5.979,1.891-8.968,4.758l-0.305-0.244c1.525-2.44,4.575-6.71,9.273-9.151V25.622h-2.746
		c-2.501,0-3.599,1.342-3.599,2.928c0,0.244,0,0.366,0,0.61h-0.305c-0.305-0.671-0.732-1.952-0.732-3.478
		c0-4.087,2.928-6.405,7.382-6.466V9.333c0-3.416-1.77-4.332-3.355-4.332c-1.525,0-2.806,1.281-3.05,2.807h-0.366
		c0-3.355,2.685-7.199,7.809-7.199c5.796,0,7.016,4.636,7.016,8.785v1.342l3.294-2.624V0.976h0.549v6.771l9.212-7.443h0.244
		c3.417,1.22,6.588,4.209,8.358,6.649v28.917L237.654,44.533z M234.482,8.785l-3.294,2.623v23.426c1.281,0,2.318,0.061,3.294,0.183
		V8.785z M234.482,42.276c-0.976-0.488-2.074-0.915-3.294-1.22v11.834h3.294V42.276z M244.792,10.676
		c-1.403-1.952-3.904-3.661-6.588-4.758l-3.172,2.44v13.421l9.761-4.819V10.676z M244.792,17.569l-9.761,4.819v5.612l9.761-4.819
		V17.569z M244.792,23.792l-9.761,4.819v6.467c3.478,0.61,6.223,1.891,9.761,4.575V23.792z"/>
	<path fill="#FFFFFF" d="M263.516,46.546h-0.183l-4.271-3.965c-1.22-1.098-1.708-1.464-2.196-1.464
		c-0.609,0-1.159,0.305-1.708,0.732l-0.244-0.366l3.6-2.623V23.547c0-1.586-2.135-3.172-2.685-3.172
		c-0.427,0-0.915,0.183-1.891,0.854l-0.244-0.366l7.26-4.941h0.183c2.074,1.525,3.538,2.745,4.819,5.125l1.525-1.098l0.244,0.366
		l-1.892,1.464v17.508c0,1.098,1.83,2.867,2.501,2.867c0.55,0,0.977-0.183,1.892-0.915l0.244,0.366L263.516,46.546z M261.076,12.872
		h-0.184l-4.636-5.002V7.687l5.429-4.393h0.184l4.636,5.002v0.183L261.076,12.872z"/>
	<path fill="#FFFFFF" d="M277.363,46.546h-0.183l-3.782-3.721c-1.159-1.159-1.647-1.464-2.136-1.464
		c-0.549,0-0.915,0.305-1.464,0.732l-0.244-0.366l3.111-2.44V10.432c0-2.562-1.464-3.539-2.196-4.026l9.517-6.344v38.86
		c0,0.976,1.83,2.867,2.501,2.867c0.306,0,0.977-0.183,1.892-0.854l0.244,0.366L277.363,46.546z"/>
	<path fill="#FFFFFF" d="M306.819,22.45v15.739c0,7.199-3.11,14.214-11.834,14.336v-0.366c4.087-0.915,4.453-4.209,4.453-7.625
		v-19.46l-4.21-4.026l-1.586,1.22v16.898c0,1.159,0.854,2.013,1.77,2.013c0.731,0,1.098-0.366,2.135-1.22l0.244,0.366l-7.382,6.284
		l-3.354-3.66c-0.977-1.098-1.587-1.586-2.136-1.586c-0.488,0-0.915,0.305-1.464,0.732l-0.244-0.366l3.111-2.44V10.432
		c0-2.562-1.464-3.539-2.196-4.026l9.517-6.344v21.656l7.016-5.795l6.101,5.979l2.013-1.281l0.244,0.366L306.819,22.45z"/>
	<path fill="#FFFFFF" d="M332.012,22.022v16.776c-5.49,2.684-7.747,4.392-12.75,7.625h-0.183l-8.175-5.795V22.632
		c5.49-2.135,7.809-3.538,12.75-6.71h0.184l7.931,5.673l1.891-1.22l0.244,0.366L332.012,22.022z M324.691,24.829l-6.467-4.636
		v17.264l6.467,4.636V24.829z"/>
	<path fill="#FFFFFF" d="M350.317,9.578h-0.183l-5.49-4.454v11.957h7.931l-2.989,2.806h-4.941v18.484
		c0,1.037,2.257,2.867,3.111,2.867c0.793,0,1.22-0.305,2.257-1.159l0.244,0.366l-7.687,6.162l-4.759-4.087
		c-1.342-1.22-1.83-1.22-2.318-1.22c-0.487,0-1.098,0.366-1.646,0.793l-0.244-0.366l3.722-2.806V22.938
		c0-2.196-2.014-2.989-3.6-2.989v-0.244l3.6-2.989V7.93c4.697-1.952,7.93-4.331,12.2-7.564h0.184l6.283,4.332V4.88L350.317,9.578z"
		/>
	<path fill="#FFFFFF" d="M360.565,46.485h-0.184l-8.967-6.345V22.754c5.856-2.257,8.54-3.904,12.75-6.833h0.183l6.589,8.358v0.122
		l-12.201,8.296v3.417c2.074,2.928,5.551,4.453,6.467,4.453c1.098,0,3.294-1.83,4.514-2.867l1.343-1.159l0.305,0.366L360.565,46.485
		z M358.735,20.375v11.774l5.979-4.148L358.735,20.375z"/>
	<path fill="#FFFFFF" d="M386.612,23.914c-1.83,0-3.172-1.159-4.515-2.562v17.325c0,1.342,2.014,2.806,2.623,2.806
		c0.794,0,1.159-0.366,2.196-1.22l0.244,0.366l-7.504,5.979l-4.392-4.271c-1.099-1.098-1.525-1.342-2.014-1.342
		c-0.549,0-1.098,0.427-1.646,0.854l-0.244-0.366l3.416-2.501V23.243c0-1.464-2.013-2.867-2.562-2.867
		c-0.427,0-0.915,0.122-1.891,0.793l-0.244-0.366l7.26-4.88h0.183c2.074,1.525,3.294,2.624,4.575,5.002l4.697-5.002h0.184
		c0.487,0.732,1.83,1.403,2.684,1.403c0.793,0,1.83-0.366,2.624-0.976l0.183,0.122C391.98,20.253,389.906,23.914,386.612,23.914z"/>
	<path fill="#FFFFFF" d="M393.689,46.791h-0.183l-4.759-5.43v-0.183l5.674-4.453h0.183l4.758,5.429v0.183L393.689,46.791z"/>
	<path fill="#FFFFFF" d="M411.135,46.485h-0.183l-8.968-6.345V22.632c5.673-2.318,7.931-3.843,11.773-6.71h0.183l6.162,4.941v0.183
		l-5.49,4.026h-0.184l-5.124-4.393v15.435c1.83,2.562,5.552,4.636,6.345,4.636c1.098,0,2.257-0.915,2.745-1.342l1.402-1.22
		l0.306,0.366L411.135,46.485z"/>
	<path fill="#FFFFFF" d="M441.387,22.022v16.776c-5.49,2.684-7.747,4.392-12.75,7.625h-0.183l-8.175-5.795V22.632
		c5.49-2.135,7.809-3.538,12.75-6.71h0.184l7.931,5.673l1.891-1.22l0.244,0.366L441.387,22.022z M434.066,24.829l-6.467-4.636
		v17.264l6.467,4.636V24.829z"/>
	<path fill="#FFFFFF" d="M477.621,46.546h-0.184l-6.039-5.308c0.549-0.244,1.77-0.854,1.77-2.44V24.523l-4.271-3.782l-1.464,1.037
		v17.569c0,1.586,1.402,2.196,1.952,2.44l-5.43,4.758l-5.612-4.758c0.549-0.244,1.769-0.854,1.769-2.44V24.523l-4.27-3.782
		l-1.465,1.037v17.569c0,1.586,1.403,2.196,1.952,2.44l-5.429,4.758l-5.735-4.758c0.55-0.244,1.892-0.854,1.892-2.44V23.243
		c0-1.22-2.013-2.867-2.562-2.867c-0.427,0-0.915,0.183-1.891,0.854l-0.244-0.366l7.26-4.941h0.183
		c2.074,1.525,3.294,2.928,4.575,5.308l6.894-5.308l6.101,5.308l6.955-5.308l6.039,5.43l1.708-1.281l0.244,0.366l-1.892,1.464
		v17.386c0,1.647,1.83,2.928,2.318,2.928c0.366,0,1.099-0.244,2.014-0.976l0.244,0.366L477.621,46.546z"/>
</g>
</svg>
